%TF.GenerationSoftware,KiCad,Pcbnew,(5.1.10)-1*%
%TF.CreationDate,2021-07-06T18:58:15-04:00*%
%TF.ProjectId,button_mount,62757474-6f6e-45f6-9d6f-756e742e6b69,rev?*%
%TF.SameCoordinates,Original*%
%TF.FileFunction,Legend,Bot*%
%TF.FilePolarity,Positive*%
%FSLAX46Y46*%
G04 Gerber Fmt 4.6, Leading zero omitted, Abs format (unit mm)*
G04 Created by KiCad (PCBNEW (5.1.10)-1) date 2021-07-06 18:58:15*
%MOMM*%
%LPD*%
G01*
G04 APERTURE LIST*
%ADD10C,0.120000*%
%ADD11C,0.150000*%
%ADD12C,0.002540*%
G04 APERTURE END LIST*
D10*
X130048000Y-88900000D02*
X124460000Y-88900000D01*
X105664000Y-88900000D02*
X111252000Y-88900000D01*
D11*
X124404285Y-79113571D02*
X124261428Y-79161190D01*
X124213809Y-79208809D01*
X124166190Y-79304047D01*
X124166190Y-79446904D01*
X124213809Y-79542142D01*
X124261428Y-79589761D01*
X124356666Y-79637380D01*
X124737619Y-79637380D01*
X124737619Y-78637380D01*
X124404285Y-78637380D01*
X124309047Y-78685000D01*
X124261428Y-78732619D01*
X124213809Y-78827857D01*
X124213809Y-78923095D01*
X124261428Y-79018333D01*
X124309047Y-79065952D01*
X124404285Y-79113571D01*
X124737619Y-79113571D01*
X123404285Y-79113571D02*
X123261428Y-79161190D01*
X123213809Y-79208809D01*
X123166190Y-79304047D01*
X123166190Y-79446904D01*
X123213809Y-79542142D01*
X123261428Y-79589761D01*
X123356666Y-79637380D01*
X123737619Y-79637380D01*
X123737619Y-78637380D01*
X123404285Y-78637380D01*
X123309047Y-78685000D01*
X123261428Y-78732619D01*
X123213809Y-78827857D01*
X123213809Y-78923095D01*
X123261428Y-79018333D01*
X123309047Y-79065952D01*
X123404285Y-79113571D01*
X123737619Y-79113571D01*
X122737619Y-79637380D02*
X122737619Y-78970714D01*
X122737619Y-79161190D02*
X122690000Y-79065952D01*
X122642380Y-79018333D01*
X122547142Y-78970714D01*
X122451904Y-78970714D01*
X122166190Y-78732619D02*
X122118571Y-78685000D01*
X122023333Y-78637380D01*
X121785238Y-78637380D01*
X121690000Y-78685000D01*
X121642380Y-78732619D01*
X121594761Y-78827857D01*
X121594761Y-78923095D01*
X121642380Y-79065952D01*
X122213809Y-79637380D01*
X121594761Y-79637380D01*
X124094761Y-80287380D02*
X124190000Y-80477857D01*
X123713809Y-80382619D02*
X123666190Y-80335000D01*
X123570952Y-80287380D01*
X123332857Y-80287380D01*
X123237619Y-80335000D01*
X123190000Y-80382619D01*
X123142380Y-80477857D01*
X123142380Y-80573095D01*
X123190000Y-80715952D01*
X123761428Y-81287380D01*
X123142380Y-81287380D01*
X122190000Y-81287380D02*
X122761428Y-81287380D01*
X122475714Y-81287380D02*
X122475714Y-80287380D01*
X122570952Y-80430238D01*
X122666190Y-80525476D01*
X122761428Y-80573095D01*
X129023904Y-95448380D02*
X129500095Y-95448380D01*
X129500095Y-94448380D01*
X128690571Y-94924571D02*
X128357238Y-94924571D01*
X128214380Y-95448380D02*
X128690571Y-95448380D01*
X128690571Y-94448380D01*
X128214380Y-94448380D01*
X127785809Y-95448380D02*
X127785809Y-94448380D01*
X127547714Y-94448380D01*
X127404857Y-94496000D01*
X127309619Y-94591238D01*
X127262000Y-94686476D01*
X127214380Y-94876952D01*
X127214380Y-95019809D01*
X127262000Y-95210285D01*
X127309619Y-95305523D01*
X127404857Y-95400761D01*
X127547714Y-95448380D01*
X127785809Y-95448380D01*
X126785809Y-95067428D02*
X126023904Y-95067428D01*
X129023904Y-83256380D02*
X129500095Y-83256380D01*
X129500095Y-82256380D01*
X128690571Y-82732571D02*
X128357238Y-82732571D01*
X128214380Y-83256380D02*
X128690571Y-83256380D01*
X128690571Y-82256380D01*
X128214380Y-82256380D01*
X127785809Y-83256380D02*
X127785809Y-82256380D01*
X127547714Y-82256380D01*
X127404857Y-82304000D01*
X127309619Y-82399238D01*
X127262000Y-82494476D01*
X127214380Y-82684952D01*
X127214380Y-82827809D01*
X127262000Y-83018285D01*
X127309619Y-83113523D01*
X127404857Y-83208761D01*
X127547714Y-83256380D01*
X127785809Y-83256380D01*
X126785809Y-82875428D02*
X126023904Y-82875428D01*
X126404857Y-83256380D02*
X126404857Y-82494476D01*
X109426190Y-83208761D02*
X109283333Y-83256380D01*
X109045238Y-83256380D01*
X108950000Y-83208761D01*
X108902380Y-83161142D01*
X108854761Y-83065904D01*
X108854761Y-82970666D01*
X108902380Y-82875428D01*
X108950000Y-82827809D01*
X109045238Y-82780190D01*
X109235714Y-82732571D01*
X109330952Y-82684952D01*
X109378571Y-82637333D01*
X109426190Y-82542095D01*
X109426190Y-82446857D01*
X109378571Y-82351619D01*
X109330952Y-82304000D01*
X109235714Y-82256380D01*
X108997619Y-82256380D01*
X108854761Y-82304000D01*
X108521428Y-82256380D02*
X108283333Y-83256380D01*
X108092857Y-82542095D01*
X107902380Y-83256380D01*
X107664285Y-82256380D01*
X107283333Y-82875428D02*
X106521428Y-82875428D01*
X109426190Y-95400761D02*
X109283333Y-95448380D01*
X109045238Y-95448380D01*
X108950000Y-95400761D01*
X108902380Y-95353142D01*
X108854761Y-95257904D01*
X108854761Y-95162666D01*
X108902380Y-95067428D01*
X108950000Y-95019809D01*
X109045238Y-94972190D01*
X109235714Y-94924571D01*
X109330952Y-94876952D01*
X109378571Y-94829333D01*
X109426190Y-94734095D01*
X109426190Y-94638857D01*
X109378571Y-94543619D01*
X109330952Y-94496000D01*
X109235714Y-94448380D01*
X108997619Y-94448380D01*
X108854761Y-94496000D01*
X108521428Y-94448380D02*
X108283333Y-95448380D01*
X108092857Y-94734095D01*
X107902380Y-95448380D01*
X107664285Y-94448380D01*
X107283333Y-95067428D02*
X106521428Y-95067428D01*
X106902380Y-95448380D02*
X106902380Y-94686476D01*
%TO.C,J2*%
X124208000Y-83590000D02*
X124208000Y-94210000D01*
X130708000Y-83590000D02*
X130708000Y-94210000D01*
X130408000Y-83590000D02*
X130408000Y-94210000D01*
X124208000Y-83590000D02*
X130708000Y-83590000D01*
X124208000Y-94210000D02*
X130708000Y-94210000D01*
%TO.C,J1*%
X111504000Y-94210000D02*
X111504000Y-83590000D01*
X105004000Y-94210000D02*
X105004000Y-83590000D01*
X105304000Y-94210000D02*
X105304000Y-83590000D01*
X111504000Y-94210000D02*
X105004000Y-94210000D01*
X111504000Y-83590000D02*
X105004000Y-83590000D01*
D12*
%TO.C,G\u002A\u002A\u002A*%
G36*
X113842800Y-99616260D02*
G01*
X113814860Y-99603560D01*
X113753900Y-99562920D01*
X113667540Y-99507040D01*
X113565940Y-99438460D01*
X113461800Y-99369880D01*
X113377980Y-99311460D01*
X113319560Y-99273360D01*
X113294160Y-99260660D01*
X113281460Y-99265740D01*
X113230660Y-99288600D01*
X113159540Y-99326700D01*
X113118900Y-99347020D01*
X113055400Y-99374960D01*
X113022380Y-99380040D01*
X113017300Y-99372420D01*
X112991900Y-99321620D01*
X112956340Y-99237800D01*
X112905540Y-99123500D01*
X112849660Y-98991420D01*
X112788700Y-98849180D01*
X112730280Y-98704400D01*
X112671860Y-98567240D01*
X112621060Y-98442780D01*
X112580420Y-98341180D01*
X112552480Y-98270060D01*
X112542320Y-98239580D01*
X112547400Y-98234500D01*
X112577880Y-98201480D01*
X112636300Y-98158300D01*
X112758220Y-98059240D01*
X112880140Y-97906840D01*
X112953800Y-97736660D01*
X112979200Y-97543620D01*
X112958880Y-97365820D01*
X112887760Y-97198180D01*
X112768380Y-97045780D01*
X112626140Y-96931480D01*
X112455960Y-96857820D01*
X112268000Y-96834960D01*
X112087660Y-96855280D01*
X111912400Y-96923860D01*
X111760000Y-97040700D01*
X111696500Y-97116900D01*
X111605060Y-97271840D01*
X111554260Y-97436940D01*
X111549180Y-97477580D01*
X111556800Y-97660460D01*
X111610140Y-97835720D01*
X111706660Y-97993200D01*
X111841280Y-98120200D01*
X111859060Y-98132900D01*
X111920020Y-98178620D01*
X111963200Y-98211640D01*
X111993680Y-98237040D01*
X111762540Y-98798380D01*
X111724440Y-98887280D01*
X111660940Y-99039680D01*
X111605060Y-99171760D01*
X111559340Y-99275900D01*
X111528860Y-99347020D01*
X111516160Y-99374960D01*
X111513620Y-99374960D01*
X111493300Y-99380040D01*
X111450120Y-99364800D01*
X111373920Y-99326700D01*
X111320580Y-99298760D01*
X111262160Y-99270820D01*
X111234220Y-99260660D01*
X111211360Y-99273360D01*
X111155480Y-99308920D01*
X111071660Y-99364800D01*
X110972600Y-99433380D01*
X110876080Y-99496880D01*
X110789720Y-99555300D01*
X110723680Y-99595940D01*
X110693200Y-99613720D01*
X110688120Y-99613720D01*
X110660180Y-99598480D01*
X110611920Y-99555300D01*
X110535720Y-99484180D01*
X110426500Y-99377500D01*
X110411260Y-99362260D01*
X110322360Y-99270820D01*
X110248700Y-99194620D01*
X110200440Y-99141280D01*
X110185200Y-99115880D01*
X110200440Y-99085400D01*
X110241080Y-99021900D01*
X110299500Y-98933000D01*
X110370620Y-98828860D01*
X110556040Y-98559620D01*
X110451900Y-98305620D01*
X110421420Y-98229420D01*
X110383320Y-98135440D01*
X110352840Y-98066860D01*
X110337600Y-98038920D01*
X110309660Y-98028760D01*
X110241080Y-98010980D01*
X110139480Y-97990660D01*
X110020100Y-97967800D01*
X109905800Y-97947480D01*
X109801660Y-97927160D01*
X109725460Y-97911920D01*
X109692440Y-97906840D01*
X109684820Y-97901760D01*
X109677200Y-97883980D01*
X109674660Y-97850960D01*
X109669580Y-97787460D01*
X109669580Y-97688400D01*
X109669580Y-97543620D01*
X109669580Y-97528380D01*
X109669580Y-97391220D01*
X109672120Y-97282000D01*
X109677200Y-97213420D01*
X109682280Y-97185480D01*
X109715300Y-97177860D01*
X109786420Y-97160080D01*
X109890560Y-97142300D01*
X110015020Y-97116900D01*
X110022640Y-97116900D01*
X110144560Y-97091500D01*
X110248700Y-97071180D01*
X110319820Y-97053400D01*
X110350300Y-97045780D01*
X110357920Y-97035620D01*
X110380780Y-96987360D01*
X110416340Y-96911160D01*
X110456980Y-96819720D01*
X110497620Y-96723200D01*
X110533180Y-96634300D01*
X110556040Y-96570800D01*
X110563660Y-96540320D01*
X110543340Y-96509840D01*
X110502700Y-96446340D01*
X110441740Y-96359980D01*
X110370620Y-96253300D01*
X110365540Y-96245680D01*
X110294420Y-96141540D01*
X110236000Y-96055180D01*
X110197900Y-95991680D01*
X110185200Y-95963740D01*
X110185200Y-95961200D01*
X110208060Y-95930720D01*
X110261400Y-95872300D01*
X110337600Y-95793560D01*
X110426500Y-95699580D01*
X110456980Y-95671640D01*
X110558580Y-95572580D01*
X110627160Y-95509080D01*
X110672880Y-95473520D01*
X110693200Y-95465900D01*
X110693200Y-95468440D01*
X110723680Y-95486220D01*
X110789720Y-95529400D01*
X110878620Y-95590360D01*
X110985300Y-95661480D01*
X110992920Y-95666560D01*
X111097060Y-95737680D01*
X111183420Y-95796100D01*
X111244380Y-95836740D01*
X111272320Y-95851980D01*
X111274860Y-95851980D01*
X111318040Y-95839280D01*
X111391700Y-95813880D01*
X111483140Y-95778320D01*
X111579660Y-95740220D01*
X111666020Y-95704660D01*
X111732060Y-95674180D01*
X111762540Y-95656400D01*
X111762540Y-95653860D01*
X111775240Y-95618300D01*
X111793020Y-95539560D01*
X111815880Y-95432880D01*
X111838740Y-95305880D01*
X111843820Y-95285560D01*
X111866680Y-95161100D01*
X111887000Y-95059500D01*
X111899700Y-94988380D01*
X111907320Y-94957900D01*
X111925100Y-94955360D01*
X111986060Y-94950280D01*
X112077500Y-94947740D01*
X112189260Y-94945200D01*
X112306100Y-94947740D01*
X112420400Y-94950280D01*
X112519460Y-94952820D01*
X112590580Y-94957900D01*
X112618520Y-94962980D01*
X112621060Y-94965520D01*
X112631220Y-95003620D01*
X112649000Y-95082360D01*
X112669320Y-95189040D01*
X112694720Y-95316040D01*
X112699800Y-95338900D01*
X112722660Y-95463360D01*
X112742980Y-95564960D01*
X112758220Y-95633540D01*
X112765840Y-95661480D01*
X112776000Y-95666560D01*
X112826800Y-95689420D01*
X112910620Y-95724980D01*
X113012220Y-95765620D01*
X113250980Y-95862140D01*
X113543080Y-95661480D01*
X113571020Y-95643700D01*
X113675160Y-95572580D01*
X113761520Y-95514160D01*
X113822480Y-95476060D01*
X113845340Y-95460820D01*
X113847880Y-95463360D01*
X113875820Y-95488760D01*
X113934240Y-95542100D01*
X114012980Y-95618300D01*
X114106960Y-95709740D01*
X114173000Y-95778320D01*
X114254280Y-95862140D01*
X114305080Y-95915480D01*
X114333020Y-95951040D01*
X114343180Y-95973900D01*
X114340640Y-95986600D01*
X114320320Y-96017080D01*
X114279680Y-96080580D01*
X114218720Y-96169480D01*
X114147600Y-96273620D01*
X114089180Y-96359980D01*
X114025680Y-96456500D01*
X113985040Y-96527620D01*
X113969800Y-96560640D01*
X113974880Y-96575880D01*
X113992660Y-96631760D01*
X114028220Y-96718120D01*
X114071400Y-96822260D01*
X114173000Y-97053400D01*
X114325400Y-97081340D01*
X114416840Y-97099120D01*
X114546380Y-97124520D01*
X114668300Y-97147380D01*
X114861340Y-97185480D01*
X114866420Y-97889060D01*
X114838480Y-97901760D01*
X114808000Y-97909380D01*
X114736880Y-97924620D01*
X114635280Y-97944940D01*
X114515900Y-97967800D01*
X114414300Y-97985580D01*
X114312700Y-98005900D01*
X114239040Y-98018600D01*
X114206020Y-98026220D01*
X114198400Y-98038920D01*
X114170460Y-98087180D01*
X114134900Y-98165920D01*
X114094260Y-98262440D01*
X114053620Y-98361500D01*
X114018060Y-98450400D01*
X113992660Y-98521520D01*
X113982500Y-98557080D01*
X113997740Y-98582480D01*
X114035840Y-98643440D01*
X114091720Y-98729800D01*
X114162840Y-98831400D01*
X114231420Y-98933000D01*
X114289840Y-99021900D01*
X114330480Y-99085400D01*
X114348260Y-99113340D01*
X114340640Y-99131120D01*
X114300000Y-99181920D01*
X114221260Y-99260660D01*
X114106960Y-99374960D01*
X114089180Y-99392740D01*
X113997740Y-99481640D01*
X113921540Y-99552760D01*
X113868200Y-99598480D01*
X113842800Y-99616260D01*
G37*
X113842800Y-99616260D02*
X113814860Y-99603560D01*
X113753900Y-99562920D01*
X113667540Y-99507040D01*
X113565940Y-99438460D01*
X113461800Y-99369880D01*
X113377980Y-99311460D01*
X113319560Y-99273360D01*
X113294160Y-99260660D01*
X113281460Y-99265740D01*
X113230660Y-99288600D01*
X113159540Y-99326700D01*
X113118900Y-99347020D01*
X113055400Y-99374960D01*
X113022380Y-99380040D01*
X113017300Y-99372420D01*
X112991900Y-99321620D01*
X112956340Y-99237800D01*
X112905540Y-99123500D01*
X112849660Y-98991420D01*
X112788700Y-98849180D01*
X112730280Y-98704400D01*
X112671860Y-98567240D01*
X112621060Y-98442780D01*
X112580420Y-98341180D01*
X112552480Y-98270060D01*
X112542320Y-98239580D01*
X112547400Y-98234500D01*
X112577880Y-98201480D01*
X112636300Y-98158300D01*
X112758220Y-98059240D01*
X112880140Y-97906840D01*
X112953800Y-97736660D01*
X112979200Y-97543620D01*
X112958880Y-97365820D01*
X112887760Y-97198180D01*
X112768380Y-97045780D01*
X112626140Y-96931480D01*
X112455960Y-96857820D01*
X112268000Y-96834960D01*
X112087660Y-96855280D01*
X111912400Y-96923860D01*
X111760000Y-97040700D01*
X111696500Y-97116900D01*
X111605060Y-97271840D01*
X111554260Y-97436940D01*
X111549180Y-97477580D01*
X111556800Y-97660460D01*
X111610140Y-97835720D01*
X111706660Y-97993200D01*
X111841280Y-98120200D01*
X111859060Y-98132900D01*
X111920020Y-98178620D01*
X111963200Y-98211640D01*
X111993680Y-98237040D01*
X111762540Y-98798380D01*
X111724440Y-98887280D01*
X111660940Y-99039680D01*
X111605060Y-99171760D01*
X111559340Y-99275900D01*
X111528860Y-99347020D01*
X111516160Y-99374960D01*
X111513620Y-99374960D01*
X111493300Y-99380040D01*
X111450120Y-99364800D01*
X111373920Y-99326700D01*
X111320580Y-99298760D01*
X111262160Y-99270820D01*
X111234220Y-99260660D01*
X111211360Y-99273360D01*
X111155480Y-99308920D01*
X111071660Y-99364800D01*
X110972600Y-99433380D01*
X110876080Y-99496880D01*
X110789720Y-99555300D01*
X110723680Y-99595940D01*
X110693200Y-99613720D01*
X110688120Y-99613720D01*
X110660180Y-99598480D01*
X110611920Y-99555300D01*
X110535720Y-99484180D01*
X110426500Y-99377500D01*
X110411260Y-99362260D01*
X110322360Y-99270820D01*
X110248700Y-99194620D01*
X110200440Y-99141280D01*
X110185200Y-99115880D01*
X110200440Y-99085400D01*
X110241080Y-99021900D01*
X110299500Y-98933000D01*
X110370620Y-98828860D01*
X110556040Y-98559620D01*
X110451900Y-98305620D01*
X110421420Y-98229420D01*
X110383320Y-98135440D01*
X110352840Y-98066860D01*
X110337600Y-98038920D01*
X110309660Y-98028760D01*
X110241080Y-98010980D01*
X110139480Y-97990660D01*
X110020100Y-97967800D01*
X109905800Y-97947480D01*
X109801660Y-97927160D01*
X109725460Y-97911920D01*
X109692440Y-97906840D01*
X109684820Y-97901760D01*
X109677200Y-97883980D01*
X109674660Y-97850960D01*
X109669580Y-97787460D01*
X109669580Y-97688400D01*
X109669580Y-97543620D01*
X109669580Y-97528380D01*
X109669580Y-97391220D01*
X109672120Y-97282000D01*
X109677200Y-97213420D01*
X109682280Y-97185480D01*
X109715300Y-97177860D01*
X109786420Y-97160080D01*
X109890560Y-97142300D01*
X110015020Y-97116900D01*
X110022640Y-97116900D01*
X110144560Y-97091500D01*
X110248700Y-97071180D01*
X110319820Y-97053400D01*
X110350300Y-97045780D01*
X110357920Y-97035620D01*
X110380780Y-96987360D01*
X110416340Y-96911160D01*
X110456980Y-96819720D01*
X110497620Y-96723200D01*
X110533180Y-96634300D01*
X110556040Y-96570800D01*
X110563660Y-96540320D01*
X110543340Y-96509840D01*
X110502700Y-96446340D01*
X110441740Y-96359980D01*
X110370620Y-96253300D01*
X110365540Y-96245680D01*
X110294420Y-96141540D01*
X110236000Y-96055180D01*
X110197900Y-95991680D01*
X110185200Y-95963740D01*
X110185200Y-95961200D01*
X110208060Y-95930720D01*
X110261400Y-95872300D01*
X110337600Y-95793560D01*
X110426500Y-95699580D01*
X110456980Y-95671640D01*
X110558580Y-95572580D01*
X110627160Y-95509080D01*
X110672880Y-95473520D01*
X110693200Y-95465900D01*
X110693200Y-95468440D01*
X110723680Y-95486220D01*
X110789720Y-95529400D01*
X110878620Y-95590360D01*
X110985300Y-95661480D01*
X110992920Y-95666560D01*
X111097060Y-95737680D01*
X111183420Y-95796100D01*
X111244380Y-95836740D01*
X111272320Y-95851980D01*
X111274860Y-95851980D01*
X111318040Y-95839280D01*
X111391700Y-95813880D01*
X111483140Y-95778320D01*
X111579660Y-95740220D01*
X111666020Y-95704660D01*
X111732060Y-95674180D01*
X111762540Y-95656400D01*
X111762540Y-95653860D01*
X111775240Y-95618300D01*
X111793020Y-95539560D01*
X111815880Y-95432880D01*
X111838740Y-95305880D01*
X111843820Y-95285560D01*
X111866680Y-95161100D01*
X111887000Y-95059500D01*
X111899700Y-94988380D01*
X111907320Y-94957900D01*
X111925100Y-94955360D01*
X111986060Y-94950280D01*
X112077500Y-94947740D01*
X112189260Y-94945200D01*
X112306100Y-94947740D01*
X112420400Y-94950280D01*
X112519460Y-94952820D01*
X112590580Y-94957900D01*
X112618520Y-94962980D01*
X112621060Y-94965520D01*
X112631220Y-95003620D01*
X112649000Y-95082360D01*
X112669320Y-95189040D01*
X112694720Y-95316040D01*
X112699800Y-95338900D01*
X112722660Y-95463360D01*
X112742980Y-95564960D01*
X112758220Y-95633540D01*
X112765840Y-95661480D01*
X112776000Y-95666560D01*
X112826800Y-95689420D01*
X112910620Y-95724980D01*
X113012220Y-95765620D01*
X113250980Y-95862140D01*
X113543080Y-95661480D01*
X113571020Y-95643700D01*
X113675160Y-95572580D01*
X113761520Y-95514160D01*
X113822480Y-95476060D01*
X113845340Y-95460820D01*
X113847880Y-95463360D01*
X113875820Y-95488760D01*
X113934240Y-95542100D01*
X114012980Y-95618300D01*
X114106960Y-95709740D01*
X114173000Y-95778320D01*
X114254280Y-95862140D01*
X114305080Y-95915480D01*
X114333020Y-95951040D01*
X114343180Y-95973900D01*
X114340640Y-95986600D01*
X114320320Y-96017080D01*
X114279680Y-96080580D01*
X114218720Y-96169480D01*
X114147600Y-96273620D01*
X114089180Y-96359980D01*
X114025680Y-96456500D01*
X113985040Y-96527620D01*
X113969800Y-96560640D01*
X113974880Y-96575880D01*
X113992660Y-96631760D01*
X114028220Y-96718120D01*
X114071400Y-96822260D01*
X114173000Y-97053400D01*
X114325400Y-97081340D01*
X114416840Y-97099120D01*
X114546380Y-97124520D01*
X114668300Y-97147380D01*
X114861340Y-97185480D01*
X114866420Y-97889060D01*
X114838480Y-97901760D01*
X114808000Y-97909380D01*
X114736880Y-97924620D01*
X114635280Y-97944940D01*
X114515900Y-97967800D01*
X114414300Y-97985580D01*
X114312700Y-98005900D01*
X114239040Y-98018600D01*
X114206020Y-98026220D01*
X114198400Y-98038920D01*
X114170460Y-98087180D01*
X114134900Y-98165920D01*
X114094260Y-98262440D01*
X114053620Y-98361500D01*
X114018060Y-98450400D01*
X113992660Y-98521520D01*
X113982500Y-98557080D01*
X113997740Y-98582480D01*
X114035840Y-98643440D01*
X114091720Y-98729800D01*
X114162840Y-98831400D01*
X114231420Y-98933000D01*
X114289840Y-99021900D01*
X114330480Y-99085400D01*
X114348260Y-99113340D01*
X114340640Y-99131120D01*
X114300000Y-99181920D01*
X114221260Y-99260660D01*
X114106960Y-99374960D01*
X114089180Y-99392740D01*
X113997740Y-99481640D01*
X113921540Y-99552760D01*
X113868200Y-99598480D01*
X113842800Y-99616260D01*
D10*
%TO.C,R2*%
X117256000Y-95114000D02*
X118456000Y-95114000D01*
X118456000Y-93354000D02*
X117256000Y-93354000D01*
%TO.C,R1*%
X118456000Y-82686000D02*
X117256000Y-82686000D01*
X117256000Y-84446000D02*
X118456000Y-84446000D01*
%TO.C,D1*%
X115606000Y-89646000D02*
X115606000Y-87646000D01*
X115606000Y-87646000D02*
X119506000Y-87646000D01*
X115606000Y-89646000D02*
X119506000Y-89646000D01*
%TO.C,J2*%
D11*
X122642380Y-88566666D02*
X123356666Y-88566666D01*
X123499523Y-88519047D01*
X123594761Y-88423809D01*
X123642380Y-88280952D01*
X123642380Y-88185714D01*
X122737619Y-88995238D02*
X122690000Y-89042857D01*
X122642380Y-89138095D01*
X122642380Y-89376190D01*
X122690000Y-89471428D01*
X122737619Y-89519047D01*
X122832857Y-89566666D01*
X122928095Y-89566666D01*
X123070952Y-89519047D01*
X123642380Y-88947619D01*
X123642380Y-89566666D01*
%TO.C,J1*%
X111974380Y-88566666D02*
X112688666Y-88566666D01*
X112831523Y-88519047D01*
X112926761Y-88423809D01*
X112974380Y-88280952D01*
X112974380Y-88185714D01*
X112974380Y-89566666D02*
X112974380Y-88995238D01*
X112974380Y-89280952D02*
X111974380Y-89280952D01*
X112117238Y-89185714D01*
X112212476Y-89090476D01*
X112260095Y-88995238D01*
%TO.C,R2*%
X114466666Y-94686380D02*
X114800000Y-94210190D01*
X115038095Y-94686380D02*
X115038095Y-93686380D01*
X114657142Y-93686380D01*
X114561904Y-93734000D01*
X114514285Y-93781619D01*
X114466666Y-93876857D01*
X114466666Y-94019714D01*
X114514285Y-94114952D01*
X114561904Y-94162571D01*
X114657142Y-94210190D01*
X115038095Y-94210190D01*
X114085714Y-93781619D02*
X114038095Y-93734000D01*
X113942857Y-93686380D01*
X113704761Y-93686380D01*
X113609523Y-93734000D01*
X113561904Y-93781619D01*
X113514285Y-93876857D01*
X113514285Y-93972095D01*
X113561904Y-94114952D01*
X114133333Y-94686380D01*
X113514285Y-94686380D01*
%TO.C,R1*%
X121578666Y-84018380D02*
X121912000Y-83542190D01*
X122150095Y-84018380D02*
X122150095Y-83018380D01*
X121769142Y-83018380D01*
X121673904Y-83066000D01*
X121626285Y-83113619D01*
X121578666Y-83208857D01*
X121578666Y-83351714D01*
X121626285Y-83446952D01*
X121673904Y-83494571D01*
X121769142Y-83542190D01*
X122150095Y-83542190D01*
X120626285Y-84018380D02*
X121197714Y-84018380D01*
X120912000Y-84018380D02*
X120912000Y-83018380D01*
X121007238Y-83161238D01*
X121102476Y-83256476D01*
X121197714Y-83304095D01*
%TO.C,D1*%
X118594095Y-91098380D02*
X118594095Y-90098380D01*
X118356000Y-90098380D01*
X118213142Y-90146000D01*
X118117904Y-90241238D01*
X118070285Y-90336476D01*
X118022666Y-90526952D01*
X118022666Y-90669809D01*
X118070285Y-90860285D01*
X118117904Y-90955523D01*
X118213142Y-91050761D01*
X118356000Y-91098380D01*
X118594095Y-91098380D01*
X117070285Y-91098380D02*
X117641714Y-91098380D01*
X117356000Y-91098380D02*
X117356000Y-90098380D01*
X117451238Y-90241238D01*
X117546476Y-90336476D01*
X117641714Y-90384095D01*
%TD*%
M02*
