%TF.GenerationSoftware,KiCad,Pcbnew,(5.1.10)-1*%
%TF.CreationDate,2021-07-06T18:58:15-04:00*%
%TF.ProjectId,button_mount,62757474-6f6e-45f6-9d6f-756e742e6b69,rev?*%
%TF.SameCoordinates,Original*%
%TF.FileFunction,Copper,L2,Bot*%
%TF.FilePolarity,Positive*%
%FSLAX46Y46*%
G04 Gerber Fmt 4.6, Leading zero omitted, Abs format (unit mm)*
G04 Created by KiCad (PCBNEW (5.1.10)-1) date 2021-07-06 18:58:15*
%MOMM*%
%LPD*%
G01*
G04 APERTURE LIST*
%TA.AperFunction,ComponentPad*%
%ADD10C,1.700000*%
%TD*%
%TA.AperFunction,ComponentPad*%
%ADD11R,1.700000X1.700000*%
%TD*%
%TA.AperFunction,ComponentPad*%
%ADD12O,4.000000X1.600000*%
%TD*%
%TA.AperFunction,SMDPad,CuDef*%
%ADD13R,1.500000X1.300000*%
%TD*%
%TA.AperFunction,ComponentPad*%
%ADD14R,1.800000X1.800000*%
%TD*%
%TA.AperFunction,ComponentPad*%
%ADD15C,1.800000*%
%TD*%
%TA.AperFunction,SMDPad,CuDef*%
%ADD16R,0.900000X1.200000*%
%TD*%
%TA.AperFunction,Conductor*%
%ADD17C,0.250000*%
%TD*%
G04 APERTURE END LIST*
D10*
%TO.P,J2,4*%
%TO.N,/LED_K*%
X127508000Y-92710000D03*
%TO.P,J2,3*%
X127508000Y-90170000D03*
D11*
%TO.P,J2,1*%
%TO.N,/LED_A*%
X127508000Y-85090000D03*
D10*
%TO.P,J2,2*%
X127508000Y-87630000D03*
%TD*%
%TO.P,J1,4*%
%TO.N,/COL_OUT*%
X108204000Y-85090000D03*
%TO.P,J1,3*%
X108204000Y-87630000D03*
D11*
%TO.P,J1,1*%
%TO.N,/ROW_IN*%
X108204000Y-92710000D03*
D10*
%TO.P,J1,2*%
X108204000Y-90170000D03*
%TD*%
D12*
%TO.P,SW1,2*%
%TO.N,/ROW_IN*%
X114356000Y-91281250D03*
%TO.P,SW1,1*%
%TO.N,Net-(D1-Pad2)*%
X121356000Y-86518750D03*
%TD*%
D13*
%TO.P,R2,1*%
%TO.N,/LED_A*%
X119206000Y-94234000D03*
%TO.P,R2,2*%
%TO.N,Net-(D3-Pad2)*%
X116506000Y-94234000D03*
%TD*%
%TO.P,R1,1*%
%TO.N,/LED_A*%
X116506000Y-83566000D03*
%TO.P,R1,2*%
%TO.N,Net-(D2-Pad2)*%
X119206000Y-83566000D03*
%TD*%
D14*
%TO.P,D3,1*%
%TO.N,/LED_K*%
X117856000Y-98907600D03*
D15*
%TO.P,D3,2*%
%TO.N,Net-(D3-Pad2)*%
X117856000Y-101447600D03*
%TD*%
D14*
%TO.P,D2,1*%
%TO.N,/LED_K*%
X117856000Y-78892400D03*
D15*
%TO.P,D2,2*%
%TO.N,Net-(D2-Pad2)*%
X117856000Y-76352400D03*
%TD*%
D16*
%TO.P,D1,1*%
%TO.N,/COL_OUT*%
X116206000Y-88646000D03*
%TO.P,D1,2*%
%TO.N,Net-(D1-Pad2)*%
X119506000Y-88646000D03*
%TD*%
D17*
%TO.N,/COL_OUT*%
X108204000Y-87630000D02*
X108204000Y-85090000D01*
X113792000Y-88646000D02*
X116206000Y-88646000D01*
X108204000Y-87630000D02*
X112776000Y-87630000D01*
X112776000Y-87630000D02*
X113792000Y-88646000D01*
%TO.N,Net-(D1-Pad2)*%
X121356000Y-86796000D02*
X119506000Y-88646000D01*
X121356000Y-86518750D02*
X121356000Y-86796000D01*
%TO.N,/LED_K*%
X127508000Y-90170000D02*
X127508000Y-92710000D01*
X121310400Y-98907600D02*
X127508000Y-92710000D01*
X117856000Y-98907600D02*
X121310400Y-98907600D01*
%TO.N,Net-(D2-Pad2)*%
X115824000Y-78384400D02*
X117856000Y-76352400D01*
X115824000Y-80518000D02*
X115824000Y-78384400D01*
X118872000Y-83566000D02*
X115824000Y-80518000D01*
X119206000Y-83566000D02*
X118872000Y-83566000D01*
%TO.N,Net-(D3-Pad2)*%
X117856000Y-101292602D02*
X117856000Y-101447600D01*
X116506000Y-99942602D02*
X117856000Y-101292602D01*
X116506000Y-94234000D02*
X116506000Y-99942602D01*
%TO.N,/ROW_IN*%
X108204000Y-90170000D02*
X108204000Y-92710000D01*
X114356000Y-91281250D02*
X111093250Y-91281250D01*
X109982000Y-90170000D02*
X108204000Y-90170000D01*
X111093250Y-91281250D02*
X109982000Y-90170000D01*
%TO.N,/LED_A*%
X116506000Y-83566000D02*
X118030000Y-85090000D01*
X118030000Y-85090000D02*
X125984000Y-85090000D01*
X121666000Y-94234000D02*
X121920000Y-94234000D01*
X119206000Y-94234000D02*
X121666000Y-94234000D01*
X125984000Y-85090000D02*
X127508000Y-85090000D01*
X127508000Y-85090000D02*
X127508000Y-87630000D01*
X125222000Y-89916000D02*
X127508000Y-87630000D01*
X125222000Y-91948000D02*
X125222000Y-89916000D01*
X122936000Y-94234000D02*
X125222000Y-91948000D01*
X121666000Y-94234000D02*
X122936000Y-94234000D01*
%TD*%
M02*
