%TF.GenerationSoftware,KiCad,Pcbnew,(5.1.10)-1*%
%TF.CreationDate,2021-07-05T16:14:48-04:00*%
%TF.ProjectId,button_mount,62757474-6f6e-45f6-9d6f-756e742e6b69,rev?*%
%TF.SameCoordinates,Original*%
%TF.FileFunction,Legend,Bot*%
%TF.FilePolarity,Positive*%
%FSLAX46Y46*%
G04 Gerber Fmt 4.6, Leading zero omitted, Abs format (unit mm)*
G04 Created by KiCad (PCBNEW (5.1.10)-1) date 2021-07-05 16:14:48*
%MOMM*%
%LPD*%
G01*
G04 APERTURE LIST*
%ADD10C,0.150000*%
%ADD11C,0.002540*%
%ADD12C,0.120000*%
G04 APERTURE END LIST*
D10*
X126436285Y-78859571D02*
X126293428Y-78907190D01*
X126245809Y-78954809D01*
X126198190Y-79050047D01*
X126198190Y-79192904D01*
X126245809Y-79288142D01*
X126293428Y-79335761D01*
X126388666Y-79383380D01*
X126769619Y-79383380D01*
X126769619Y-78383380D01*
X126436285Y-78383380D01*
X126341047Y-78431000D01*
X126293428Y-78478619D01*
X126245809Y-78573857D01*
X126245809Y-78669095D01*
X126293428Y-78764333D01*
X126341047Y-78811952D01*
X126436285Y-78859571D01*
X126769619Y-78859571D01*
X125436285Y-78859571D02*
X125293428Y-78907190D01*
X125245809Y-78954809D01*
X125198190Y-79050047D01*
X125198190Y-79192904D01*
X125245809Y-79288142D01*
X125293428Y-79335761D01*
X125388666Y-79383380D01*
X125769619Y-79383380D01*
X125769619Y-78383380D01*
X125436285Y-78383380D01*
X125341047Y-78431000D01*
X125293428Y-78478619D01*
X125245809Y-78573857D01*
X125245809Y-78669095D01*
X125293428Y-78764333D01*
X125341047Y-78811952D01*
X125436285Y-78859571D01*
X125769619Y-78859571D01*
X124769619Y-79383380D02*
X124769619Y-78716714D01*
X124769619Y-78907190D02*
X124722000Y-78811952D01*
X124674380Y-78764333D01*
X124579142Y-78716714D01*
X124483904Y-78716714D01*
X123626761Y-79383380D02*
X124198190Y-79383380D01*
X123912476Y-79383380D02*
X123912476Y-78383380D01*
X124007714Y-78526238D01*
X124102952Y-78621476D01*
X124198190Y-78669095D01*
X126126761Y-80033380D02*
X126222000Y-80223857D01*
X125745809Y-80128619D02*
X125698190Y-80081000D01*
X125602952Y-80033380D01*
X125364857Y-80033380D01*
X125269619Y-80081000D01*
X125222000Y-80128619D01*
X125174380Y-80223857D01*
X125174380Y-80319095D01*
X125222000Y-80461952D01*
X125793428Y-81033380D01*
X125174380Y-81033380D01*
X124222000Y-81033380D02*
X124793428Y-81033380D01*
X124507714Y-81033380D02*
X124507714Y-80033380D01*
X124602952Y-80176238D01*
X124698190Y-80271476D01*
X124793428Y-80319095D01*
X129785904Y-93670380D02*
X130262095Y-93670380D01*
X130262095Y-92670380D01*
X129452571Y-93146571D02*
X129119238Y-93146571D01*
X128976380Y-93670380D02*
X129452571Y-93670380D01*
X129452571Y-92670380D01*
X128976380Y-92670380D01*
X128547809Y-93670380D02*
X128547809Y-92670380D01*
X128309714Y-92670380D01*
X128166857Y-92718000D01*
X128071619Y-92813238D01*
X128024000Y-92908476D01*
X127976380Y-93098952D01*
X127976380Y-93241809D01*
X128024000Y-93432285D01*
X128071619Y-93527523D01*
X128166857Y-93622761D01*
X128309714Y-93670380D01*
X128547809Y-93670380D01*
X127547809Y-93289428D02*
X126785904Y-93289428D01*
X129785904Y-85034380D02*
X130262095Y-85034380D01*
X130262095Y-84034380D01*
X129452571Y-84510571D02*
X129119238Y-84510571D01*
X128976380Y-85034380D02*
X129452571Y-85034380D01*
X129452571Y-84034380D01*
X128976380Y-84034380D01*
X128547809Y-85034380D02*
X128547809Y-84034380D01*
X128309714Y-84034380D01*
X128166857Y-84082000D01*
X128071619Y-84177238D01*
X128024000Y-84272476D01*
X127976380Y-84462952D01*
X127976380Y-84605809D01*
X128024000Y-84796285D01*
X128071619Y-84891523D01*
X128166857Y-84986761D01*
X128309714Y-85034380D01*
X128547809Y-85034380D01*
X127547809Y-84653428D02*
X126785904Y-84653428D01*
X127166857Y-85034380D02*
X127166857Y-84272476D01*
X108664190Y-84986761D02*
X108521333Y-85034380D01*
X108283238Y-85034380D01*
X108188000Y-84986761D01*
X108140380Y-84939142D01*
X108092761Y-84843904D01*
X108092761Y-84748666D01*
X108140380Y-84653428D01*
X108188000Y-84605809D01*
X108283238Y-84558190D01*
X108473714Y-84510571D01*
X108568952Y-84462952D01*
X108616571Y-84415333D01*
X108664190Y-84320095D01*
X108664190Y-84224857D01*
X108616571Y-84129619D01*
X108568952Y-84082000D01*
X108473714Y-84034380D01*
X108235619Y-84034380D01*
X108092761Y-84082000D01*
X107759428Y-84034380D02*
X107521333Y-85034380D01*
X107330857Y-84320095D01*
X107140380Y-85034380D01*
X106902285Y-84034380D01*
X106521333Y-84653428D02*
X105759428Y-84653428D01*
X108664190Y-93622761D02*
X108521333Y-93670380D01*
X108283238Y-93670380D01*
X108188000Y-93622761D01*
X108140380Y-93575142D01*
X108092761Y-93479904D01*
X108092761Y-93384666D01*
X108140380Y-93289428D01*
X108188000Y-93241809D01*
X108283238Y-93194190D01*
X108473714Y-93146571D01*
X108568952Y-93098952D01*
X108616571Y-93051333D01*
X108664190Y-92956095D01*
X108664190Y-92860857D01*
X108616571Y-92765619D01*
X108568952Y-92718000D01*
X108473714Y-92670380D01*
X108235619Y-92670380D01*
X108092761Y-92718000D01*
X107759428Y-92670380D02*
X107521333Y-93670380D01*
X107330857Y-92956095D01*
X107140380Y-93670380D01*
X106902285Y-92670380D01*
X106521333Y-93289428D02*
X105759428Y-93289428D01*
X106140380Y-93670380D02*
X106140380Y-92908476D01*
D11*
%TO.C,G\u002A\u002A\u002A*%
G36*
X111810800Y-100378260D02*
G01*
X111782860Y-100365560D01*
X111721900Y-100324920D01*
X111635540Y-100269040D01*
X111533940Y-100200460D01*
X111429800Y-100131880D01*
X111345980Y-100073460D01*
X111287560Y-100035360D01*
X111262160Y-100022660D01*
X111249460Y-100027740D01*
X111198660Y-100050600D01*
X111127540Y-100088700D01*
X111086900Y-100109020D01*
X111023400Y-100136960D01*
X110990380Y-100142040D01*
X110985300Y-100134420D01*
X110959900Y-100083620D01*
X110924340Y-99999800D01*
X110873540Y-99885500D01*
X110817660Y-99753420D01*
X110756700Y-99611180D01*
X110698280Y-99466400D01*
X110639860Y-99329240D01*
X110589060Y-99204780D01*
X110548420Y-99103180D01*
X110520480Y-99032060D01*
X110510320Y-99001580D01*
X110515400Y-98996500D01*
X110545880Y-98963480D01*
X110604300Y-98920300D01*
X110726220Y-98821240D01*
X110848140Y-98668840D01*
X110921800Y-98498660D01*
X110947200Y-98305620D01*
X110926880Y-98127820D01*
X110855760Y-97960180D01*
X110736380Y-97807780D01*
X110594140Y-97693480D01*
X110423960Y-97619820D01*
X110236000Y-97596960D01*
X110055660Y-97617280D01*
X109880400Y-97685860D01*
X109728000Y-97802700D01*
X109664500Y-97878900D01*
X109573060Y-98033840D01*
X109522260Y-98198940D01*
X109517180Y-98239580D01*
X109524800Y-98422460D01*
X109578140Y-98597720D01*
X109674660Y-98755200D01*
X109809280Y-98882200D01*
X109827060Y-98894900D01*
X109888020Y-98940620D01*
X109931200Y-98973640D01*
X109961680Y-98999040D01*
X109730540Y-99560380D01*
X109692440Y-99649280D01*
X109628940Y-99801680D01*
X109573060Y-99933760D01*
X109527340Y-100037900D01*
X109496860Y-100109020D01*
X109484160Y-100136960D01*
X109481620Y-100136960D01*
X109461300Y-100142040D01*
X109418120Y-100126800D01*
X109341920Y-100088700D01*
X109288580Y-100060760D01*
X109230160Y-100032820D01*
X109202220Y-100022660D01*
X109179360Y-100035360D01*
X109123480Y-100070920D01*
X109039660Y-100126800D01*
X108940600Y-100195380D01*
X108844080Y-100258880D01*
X108757720Y-100317300D01*
X108691680Y-100357940D01*
X108661200Y-100375720D01*
X108656120Y-100375720D01*
X108628180Y-100360480D01*
X108579920Y-100317300D01*
X108503720Y-100246180D01*
X108394500Y-100139500D01*
X108379260Y-100124260D01*
X108290360Y-100032820D01*
X108216700Y-99956620D01*
X108168440Y-99903280D01*
X108153200Y-99877880D01*
X108168440Y-99847400D01*
X108209080Y-99783900D01*
X108267500Y-99695000D01*
X108338620Y-99590860D01*
X108524040Y-99321620D01*
X108419900Y-99067620D01*
X108389420Y-98991420D01*
X108351320Y-98897440D01*
X108320840Y-98828860D01*
X108305600Y-98800920D01*
X108277660Y-98790760D01*
X108209080Y-98772980D01*
X108107480Y-98752660D01*
X107988100Y-98729800D01*
X107873800Y-98709480D01*
X107769660Y-98689160D01*
X107693460Y-98673920D01*
X107660440Y-98668840D01*
X107652820Y-98663760D01*
X107645200Y-98645980D01*
X107642660Y-98612960D01*
X107637580Y-98549460D01*
X107637580Y-98450400D01*
X107637580Y-98305620D01*
X107637580Y-98290380D01*
X107637580Y-98153220D01*
X107640120Y-98044000D01*
X107645200Y-97975420D01*
X107650280Y-97947480D01*
X107683300Y-97939860D01*
X107754420Y-97922080D01*
X107858560Y-97904300D01*
X107983020Y-97878900D01*
X107990640Y-97878900D01*
X108112560Y-97853500D01*
X108216700Y-97833180D01*
X108287820Y-97815400D01*
X108318300Y-97807780D01*
X108325920Y-97797620D01*
X108348780Y-97749360D01*
X108384340Y-97673160D01*
X108424980Y-97581720D01*
X108465620Y-97485200D01*
X108501180Y-97396300D01*
X108524040Y-97332800D01*
X108531660Y-97302320D01*
X108511340Y-97271840D01*
X108470700Y-97208340D01*
X108409740Y-97121980D01*
X108338620Y-97015300D01*
X108333540Y-97007680D01*
X108262420Y-96903540D01*
X108204000Y-96817180D01*
X108165900Y-96753680D01*
X108153200Y-96725740D01*
X108153200Y-96723200D01*
X108176060Y-96692720D01*
X108229400Y-96634300D01*
X108305600Y-96555560D01*
X108394500Y-96461580D01*
X108424980Y-96433640D01*
X108526580Y-96334580D01*
X108595160Y-96271080D01*
X108640880Y-96235520D01*
X108661200Y-96227900D01*
X108661200Y-96230440D01*
X108691680Y-96248220D01*
X108757720Y-96291400D01*
X108846620Y-96352360D01*
X108953300Y-96423480D01*
X108960920Y-96428560D01*
X109065060Y-96499680D01*
X109151420Y-96558100D01*
X109212380Y-96598740D01*
X109240320Y-96613980D01*
X109242860Y-96613980D01*
X109286040Y-96601280D01*
X109359700Y-96575880D01*
X109451140Y-96540320D01*
X109547660Y-96502220D01*
X109634020Y-96466660D01*
X109700060Y-96436180D01*
X109730540Y-96418400D01*
X109730540Y-96415860D01*
X109743240Y-96380300D01*
X109761020Y-96301560D01*
X109783880Y-96194880D01*
X109806740Y-96067880D01*
X109811820Y-96047560D01*
X109834680Y-95923100D01*
X109855000Y-95821500D01*
X109867700Y-95750380D01*
X109875320Y-95719900D01*
X109893100Y-95717360D01*
X109954060Y-95712280D01*
X110045500Y-95709740D01*
X110157260Y-95707200D01*
X110274100Y-95709740D01*
X110388400Y-95712280D01*
X110487460Y-95714820D01*
X110558580Y-95719900D01*
X110586520Y-95724980D01*
X110589060Y-95727520D01*
X110599220Y-95765620D01*
X110617000Y-95844360D01*
X110637320Y-95951040D01*
X110662720Y-96078040D01*
X110667800Y-96100900D01*
X110690660Y-96225360D01*
X110710980Y-96326960D01*
X110726220Y-96395540D01*
X110733840Y-96423480D01*
X110744000Y-96428560D01*
X110794800Y-96451420D01*
X110878620Y-96486980D01*
X110980220Y-96527620D01*
X111218980Y-96624140D01*
X111511080Y-96423480D01*
X111539020Y-96405700D01*
X111643160Y-96334580D01*
X111729520Y-96276160D01*
X111790480Y-96238060D01*
X111813340Y-96222820D01*
X111815880Y-96225360D01*
X111843820Y-96250760D01*
X111902240Y-96304100D01*
X111980980Y-96380300D01*
X112074960Y-96471740D01*
X112141000Y-96540320D01*
X112222280Y-96624140D01*
X112273080Y-96677480D01*
X112301020Y-96713040D01*
X112311180Y-96735900D01*
X112308640Y-96748600D01*
X112288320Y-96779080D01*
X112247680Y-96842580D01*
X112186720Y-96931480D01*
X112115600Y-97035620D01*
X112057180Y-97121980D01*
X111993680Y-97218500D01*
X111953040Y-97289620D01*
X111937800Y-97322640D01*
X111942880Y-97337880D01*
X111960660Y-97393760D01*
X111996220Y-97480120D01*
X112039400Y-97584260D01*
X112141000Y-97815400D01*
X112293400Y-97843340D01*
X112384840Y-97861120D01*
X112514380Y-97886520D01*
X112636300Y-97909380D01*
X112829340Y-97947480D01*
X112834420Y-98651060D01*
X112806480Y-98663760D01*
X112776000Y-98671380D01*
X112704880Y-98686620D01*
X112603280Y-98706940D01*
X112483900Y-98729800D01*
X112382300Y-98747580D01*
X112280700Y-98767900D01*
X112207040Y-98780600D01*
X112174020Y-98788220D01*
X112166400Y-98800920D01*
X112138460Y-98849180D01*
X112102900Y-98927920D01*
X112062260Y-99024440D01*
X112021620Y-99123500D01*
X111986060Y-99212400D01*
X111960660Y-99283520D01*
X111950500Y-99319080D01*
X111965740Y-99344480D01*
X112003840Y-99405440D01*
X112059720Y-99491800D01*
X112130840Y-99593400D01*
X112199420Y-99695000D01*
X112257840Y-99783900D01*
X112298480Y-99847400D01*
X112316260Y-99875340D01*
X112308640Y-99893120D01*
X112268000Y-99943920D01*
X112189260Y-100022660D01*
X112074960Y-100136960D01*
X112057180Y-100154740D01*
X111965740Y-100243640D01*
X111889540Y-100314760D01*
X111836200Y-100360480D01*
X111810800Y-100378260D01*
G37*
X111810800Y-100378260D02*
X111782860Y-100365560D01*
X111721900Y-100324920D01*
X111635540Y-100269040D01*
X111533940Y-100200460D01*
X111429800Y-100131880D01*
X111345980Y-100073460D01*
X111287560Y-100035360D01*
X111262160Y-100022660D01*
X111249460Y-100027740D01*
X111198660Y-100050600D01*
X111127540Y-100088700D01*
X111086900Y-100109020D01*
X111023400Y-100136960D01*
X110990380Y-100142040D01*
X110985300Y-100134420D01*
X110959900Y-100083620D01*
X110924340Y-99999800D01*
X110873540Y-99885500D01*
X110817660Y-99753420D01*
X110756700Y-99611180D01*
X110698280Y-99466400D01*
X110639860Y-99329240D01*
X110589060Y-99204780D01*
X110548420Y-99103180D01*
X110520480Y-99032060D01*
X110510320Y-99001580D01*
X110515400Y-98996500D01*
X110545880Y-98963480D01*
X110604300Y-98920300D01*
X110726220Y-98821240D01*
X110848140Y-98668840D01*
X110921800Y-98498660D01*
X110947200Y-98305620D01*
X110926880Y-98127820D01*
X110855760Y-97960180D01*
X110736380Y-97807780D01*
X110594140Y-97693480D01*
X110423960Y-97619820D01*
X110236000Y-97596960D01*
X110055660Y-97617280D01*
X109880400Y-97685860D01*
X109728000Y-97802700D01*
X109664500Y-97878900D01*
X109573060Y-98033840D01*
X109522260Y-98198940D01*
X109517180Y-98239580D01*
X109524800Y-98422460D01*
X109578140Y-98597720D01*
X109674660Y-98755200D01*
X109809280Y-98882200D01*
X109827060Y-98894900D01*
X109888020Y-98940620D01*
X109931200Y-98973640D01*
X109961680Y-98999040D01*
X109730540Y-99560380D01*
X109692440Y-99649280D01*
X109628940Y-99801680D01*
X109573060Y-99933760D01*
X109527340Y-100037900D01*
X109496860Y-100109020D01*
X109484160Y-100136960D01*
X109481620Y-100136960D01*
X109461300Y-100142040D01*
X109418120Y-100126800D01*
X109341920Y-100088700D01*
X109288580Y-100060760D01*
X109230160Y-100032820D01*
X109202220Y-100022660D01*
X109179360Y-100035360D01*
X109123480Y-100070920D01*
X109039660Y-100126800D01*
X108940600Y-100195380D01*
X108844080Y-100258880D01*
X108757720Y-100317300D01*
X108691680Y-100357940D01*
X108661200Y-100375720D01*
X108656120Y-100375720D01*
X108628180Y-100360480D01*
X108579920Y-100317300D01*
X108503720Y-100246180D01*
X108394500Y-100139500D01*
X108379260Y-100124260D01*
X108290360Y-100032820D01*
X108216700Y-99956620D01*
X108168440Y-99903280D01*
X108153200Y-99877880D01*
X108168440Y-99847400D01*
X108209080Y-99783900D01*
X108267500Y-99695000D01*
X108338620Y-99590860D01*
X108524040Y-99321620D01*
X108419900Y-99067620D01*
X108389420Y-98991420D01*
X108351320Y-98897440D01*
X108320840Y-98828860D01*
X108305600Y-98800920D01*
X108277660Y-98790760D01*
X108209080Y-98772980D01*
X108107480Y-98752660D01*
X107988100Y-98729800D01*
X107873800Y-98709480D01*
X107769660Y-98689160D01*
X107693460Y-98673920D01*
X107660440Y-98668840D01*
X107652820Y-98663760D01*
X107645200Y-98645980D01*
X107642660Y-98612960D01*
X107637580Y-98549460D01*
X107637580Y-98450400D01*
X107637580Y-98305620D01*
X107637580Y-98290380D01*
X107637580Y-98153220D01*
X107640120Y-98044000D01*
X107645200Y-97975420D01*
X107650280Y-97947480D01*
X107683300Y-97939860D01*
X107754420Y-97922080D01*
X107858560Y-97904300D01*
X107983020Y-97878900D01*
X107990640Y-97878900D01*
X108112560Y-97853500D01*
X108216700Y-97833180D01*
X108287820Y-97815400D01*
X108318300Y-97807780D01*
X108325920Y-97797620D01*
X108348780Y-97749360D01*
X108384340Y-97673160D01*
X108424980Y-97581720D01*
X108465620Y-97485200D01*
X108501180Y-97396300D01*
X108524040Y-97332800D01*
X108531660Y-97302320D01*
X108511340Y-97271840D01*
X108470700Y-97208340D01*
X108409740Y-97121980D01*
X108338620Y-97015300D01*
X108333540Y-97007680D01*
X108262420Y-96903540D01*
X108204000Y-96817180D01*
X108165900Y-96753680D01*
X108153200Y-96725740D01*
X108153200Y-96723200D01*
X108176060Y-96692720D01*
X108229400Y-96634300D01*
X108305600Y-96555560D01*
X108394500Y-96461580D01*
X108424980Y-96433640D01*
X108526580Y-96334580D01*
X108595160Y-96271080D01*
X108640880Y-96235520D01*
X108661200Y-96227900D01*
X108661200Y-96230440D01*
X108691680Y-96248220D01*
X108757720Y-96291400D01*
X108846620Y-96352360D01*
X108953300Y-96423480D01*
X108960920Y-96428560D01*
X109065060Y-96499680D01*
X109151420Y-96558100D01*
X109212380Y-96598740D01*
X109240320Y-96613980D01*
X109242860Y-96613980D01*
X109286040Y-96601280D01*
X109359700Y-96575880D01*
X109451140Y-96540320D01*
X109547660Y-96502220D01*
X109634020Y-96466660D01*
X109700060Y-96436180D01*
X109730540Y-96418400D01*
X109730540Y-96415860D01*
X109743240Y-96380300D01*
X109761020Y-96301560D01*
X109783880Y-96194880D01*
X109806740Y-96067880D01*
X109811820Y-96047560D01*
X109834680Y-95923100D01*
X109855000Y-95821500D01*
X109867700Y-95750380D01*
X109875320Y-95719900D01*
X109893100Y-95717360D01*
X109954060Y-95712280D01*
X110045500Y-95709740D01*
X110157260Y-95707200D01*
X110274100Y-95709740D01*
X110388400Y-95712280D01*
X110487460Y-95714820D01*
X110558580Y-95719900D01*
X110586520Y-95724980D01*
X110589060Y-95727520D01*
X110599220Y-95765620D01*
X110617000Y-95844360D01*
X110637320Y-95951040D01*
X110662720Y-96078040D01*
X110667800Y-96100900D01*
X110690660Y-96225360D01*
X110710980Y-96326960D01*
X110726220Y-96395540D01*
X110733840Y-96423480D01*
X110744000Y-96428560D01*
X110794800Y-96451420D01*
X110878620Y-96486980D01*
X110980220Y-96527620D01*
X111218980Y-96624140D01*
X111511080Y-96423480D01*
X111539020Y-96405700D01*
X111643160Y-96334580D01*
X111729520Y-96276160D01*
X111790480Y-96238060D01*
X111813340Y-96222820D01*
X111815880Y-96225360D01*
X111843820Y-96250760D01*
X111902240Y-96304100D01*
X111980980Y-96380300D01*
X112074960Y-96471740D01*
X112141000Y-96540320D01*
X112222280Y-96624140D01*
X112273080Y-96677480D01*
X112301020Y-96713040D01*
X112311180Y-96735900D01*
X112308640Y-96748600D01*
X112288320Y-96779080D01*
X112247680Y-96842580D01*
X112186720Y-96931480D01*
X112115600Y-97035620D01*
X112057180Y-97121980D01*
X111993680Y-97218500D01*
X111953040Y-97289620D01*
X111937800Y-97322640D01*
X111942880Y-97337880D01*
X111960660Y-97393760D01*
X111996220Y-97480120D01*
X112039400Y-97584260D01*
X112141000Y-97815400D01*
X112293400Y-97843340D01*
X112384840Y-97861120D01*
X112514380Y-97886520D01*
X112636300Y-97909380D01*
X112829340Y-97947480D01*
X112834420Y-98651060D01*
X112806480Y-98663760D01*
X112776000Y-98671380D01*
X112704880Y-98686620D01*
X112603280Y-98706940D01*
X112483900Y-98729800D01*
X112382300Y-98747580D01*
X112280700Y-98767900D01*
X112207040Y-98780600D01*
X112174020Y-98788220D01*
X112166400Y-98800920D01*
X112138460Y-98849180D01*
X112102900Y-98927920D01*
X112062260Y-99024440D01*
X112021620Y-99123500D01*
X111986060Y-99212400D01*
X111960660Y-99283520D01*
X111950500Y-99319080D01*
X111965740Y-99344480D01*
X112003840Y-99405440D01*
X112059720Y-99491800D01*
X112130840Y-99593400D01*
X112199420Y-99695000D01*
X112257840Y-99783900D01*
X112298480Y-99847400D01*
X112316260Y-99875340D01*
X112308640Y-99893120D01*
X112268000Y-99943920D01*
X112189260Y-100022660D01*
X112074960Y-100136960D01*
X112057180Y-100154740D01*
X111965740Y-100243640D01*
X111889540Y-100314760D01*
X111836200Y-100360480D01*
X111810800Y-100378260D01*
D10*
%TO.C,J2*%
X125425200Y-86100920D02*
X131622800Y-86100920D01*
X125425200Y-91699080D02*
X125425200Y-86100920D01*
X131622800Y-91699080D02*
X125425200Y-91699080D01*
X131622800Y-86100920D02*
X131622800Y-91699080D01*
X125823980Y-86100920D02*
X125823980Y-91699080D01*
X131622800Y-88900000D02*
X131124960Y-88900000D01*
X131124960Y-91500960D02*
X131622800Y-91500960D01*
X131622800Y-86299040D02*
X131124960Y-86299040D01*
X131124960Y-91699080D02*
X131124960Y-86100920D01*
D12*
%TO.C,R2*%
X118456000Y-93354000D02*
X117256000Y-93354000D01*
X117256000Y-95114000D02*
X118456000Y-95114000D01*
%TO.C,R1*%
X117256000Y-84446000D02*
X118456000Y-84446000D01*
X118456000Y-82686000D02*
X117256000Y-82686000D01*
D10*
%TO.C,J1*%
X110286800Y-91699080D02*
X104089200Y-91699080D01*
X110286800Y-86100920D02*
X110286800Y-91699080D01*
X104089200Y-86100920D02*
X110286800Y-86100920D01*
X104089200Y-91699080D02*
X104089200Y-86100920D01*
X109888020Y-91699080D02*
X109888020Y-86100920D01*
X104089200Y-88900000D02*
X104587040Y-88900000D01*
X104587040Y-86299040D02*
X104089200Y-86299040D01*
X104089200Y-91500960D02*
X104587040Y-91500960D01*
X104587040Y-86100920D02*
X104587040Y-91699080D01*
D12*
%TO.C,D1*%
X115606000Y-89646000D02*
X119506000Y-89646000D01*
X115606000Y-87646000D02*
X119506000Y-87646000D01*
X115606000Y-89646000D02*
X115606000Y-87646000D01*
%TO.C,J2*%
D10*
X123658380Y-88820666D02*
X124372666Y-88820666D01*
X124515523Y-88773047D01*
X124610761Y-88677809D01*
X124658380Y-88534952D01*
X124658380Y-88439714D01*
X123753619Y-89249238D02*
X123706000Y-89296857D01*
X123658380Y-89392095D01*
X123658380Y-89630190D01*
X123706000Y-89725428D01*
X123753619Y-89773047D01*
X123848857Y-89820666D01*
X123944095Y-89820666D01*
X124086952Y-89773047D01*
X124658380Y-89201619D01*
X124658380Y-89820666D01*
%TO.C,R2*%
X114466666Y-94686380D02*
X114800000Y-94210190D01*
X115038095Y-94686380D02*
X115038095Y-93686380D01*
X114657142Y-93686380D01*
X114561904Y-93734000D01*
X114514285Y-93781619D01*
X114466666Y-93876857D01*
X114466666Y-94019714D01*
X114514285Y-94114952D01*
X114561904Y-94162571D01*
X114657142Y-94210190D01*
X115038095Y-94210190D01*
X114085714Y-93781619D02*
X114038095Y-93734000D01*
X113942857Y-93686380D01*
X113704761Y-93686380D01*
X113609523Y-93734000D01*
X113561904Y-93781619D01*
X113514285Y-93876857D01*
X113514285Y-93972095D01*
X113561904Y-94114952D01*
X114133333Y-94686380D01*
X113514285Y-94686380D01*
%TO.C,R1*%
X121578666Y-84018380D02*
X121912000Y-83542190D01*
X122150095Y-84018380D02*
X122150095Y-83018380D01*
X121769142Y-83018380D01*
X121673904Y-83066000D01*
X121626285Y-83113619D01*
X121578666Y-83208857D01*
X121578666Y-83351714D01*
X121626285Y-83446952D01*
X121673904Y-83494571D01*
X121769142Y-83542190D01*
X122150095Y-83542190D01*
X120626285Y-84018380D02*
X121197714Y-84018380D01*
X120912000Y-84018380D02*
X120912000Y-83018380D01*
X121007238Y-83161238D01*
X121102476Y-83256476D01*
X121197714Y-83304095D01*
%TO.C,J1*%
X110958380Y-88566666D02*
X111672666Y-88566666D01*
X111815523Y-88519047D01*
X111910761Y-88423809D01*
X111958380Y-88280952D01*
X111958380Y-88185714D01*
X111958380Y-89566666D02*
X111958380Y-88995238D01*
X111958380Y-89280952D02*
X110958380Y-89280952D01*
X111101238Y-89185714D01*
X111196476Y-89090476D01*
X111244095Y-88995238D01*
%TO.C,D1*%
X118594095Y-91098380D02*
X118594095Y-90098380D01*
X118356000Y-90098380D01*
X118213142Y-90146000D01*
X118117904Y-90241238D01*
X118070285Y-90336476D01*
X118022666Y-90526952D01*
X118022666Y-90669809D01*
X118070285Y-90860285D01*
X118117904Y-90955523D01*
X118213142Y-91050761D01*
X118356000Y-91098380D01*
X118594095Y-91098380D01*
X117070285Y-91098380D02*
X117641714Y-91098380D01*
X117356000Y-91098380D02*
X117356000Y-90098380D01*
X117451238Y-90241238D01*
X117546476Y-90336476D01*
X117641714Y-90384095D01*
%TD*%
M02*
